<!-- icon666.com - MILLIONS vector ICONS FREE --><svg id="Capa_1" enable-background="new 0 0 512.001 512.001" viewBox="0 0 512.001 512.001" xmlns="http://www.w3.org/2000/svg"><g><path d="m510.927 111.571c2.229-5.571.923-11.935-3.32-16.177-4.243-4.244-10.61-5.549-16.177-3.321l-58.257 23.302c-25.813-15.765-56.453-24.375-87.173-24.375-33.181 0-64.099 9.854-90 26.776-25.901-16.922-56.819-26.776-90-26.776-91.533 0-166 74.019-166 165 0 30.598 8.4 60.224 24.369 86.188l-23.296 58.242c-2.229 5.571-.922 11.935 3.321 16.177 4.25 4.251 10.616 5.545 16.177 3.321l58.256-23.302c25.812 15.765 56.453 24.375 87.173 24.375 33.181 0 64.099-9.854 90-26.776 25.901 16.922 56.819 26.776 90 26.776 91.532 0 166-74.019 166-165 0-30.597-8.4-60.223-24.368-86.188zm-344.926 279.43c-27.498 0-54.871-8.367-77.077-23.561-4.136-2.829-9.402-3.402-14.041-1.547l-32.957 13.183 13.183-32.957c1.858-4.646 1.278-9.912-1.547-14.041-15.414-22.527-23.561-48.834-23.561-76.077 0-74.439 61.009-135 136-135 23.574 0 45.751 6.08 65.059 16.745-30.856 29.999-50.059 71.924-50.059 118.255s19.203 88.257 50.059 118.255c-19.308 10.664-41.486 16.745-65.059 16.745zm135-135c0 39.893-17.399 75.794-45 100.53-27.601-24.736-45-60.637-45-100.53s17.399-75.794 45-100.53c27.601 24.735 45 60.636 45 100.53zm45 135c-23.574 0-45.751-6.08-65.059-16.745 30.856-29.999 50.059-71.924 50.059-118.255s-19.203-88.257-50.059-118.255c19.307-10.665 41.485-16.745 65.059-16.745 27.498 0 54.871 8.367 77.077 23.561 4.13 2.825 9.396 3.405 14.04 1.547l32.957-13.183-13.182 32.957c-1.858 4.646-1.278 9.912 1.547 14.041 15.413 22.528 23.561 48.835 23.561 76.077 0 74.439-61.01 135-136 135z" fill="#000000" style="fill: rgb(20, 255, 48);"></path><circle cx="136.001" cy="256.001" r="15" fill="#000000" style="fill: rgb(20, 255, 48);"></circle><circle cx="256.001" cy="256.001" r="15" fill="#000000" style="fill: rgb(20, 255, 48);"></circle><circle cx="376.001" cy="256.001" r="15" fill="#000000" style="fill: rgb(20, 255, 48);"></circle></g></svg>